<?xml version="1.0" encoding="UTF-8"?>
<svg width="64" height="64" viewBox="0 0 64 64" fill="none" xmlns="http://www.w3.org/2000/svg">
  <!-- Background circle -->
  <circle cx="32" cy="32" r="32" fill="#1E293B"/>
  
  <!-- DNA Helix Icon - centered -->
  <g transform="translate(32, 32) scale(1.2)">
    <!-- DNA backbone lines (double helix) -->
    <path d="M-12,-9 C-8,-6 -4,-3 0,0 C4,3 8,6 12,9" stroke="#2563EB" stroke-width="3" fill="none" opacity="0.8"/>
    <path d="M-12,9 C-8,6 -4,3 0,0 C4,-3 8,-6 12,-9" stroke="#60A5FA" stroke-width="3" fill="none" opacity="0.8"/>
    
    <!-- Connection "rungs" of the DNA -->
    <line x1="-9" y1="-7" x2="-9" y2="7" stroke="#F472B6" stroke-width="1.5" opacity="0.9"/>
    <line x1="-3" y1="-4" x2="-3" y2="4" stroke="#F472B6" stroke-width="1.5" opacity="0.9"/>
    <line x1="3" y1="-4" x2="3" y2="4" stroke="#F472B6" stroke-width="1.5" opacity="0.9"/>
    <line x1="9" y1="-7" x2="9" y2="7" stroke="#F472B6" stroke-width="1.5" opacity="0.9"/>
    
    <!-- Gold connection points -->
    <circle cx="-9" cy="-7" r="1.5" fill="#FBBF24"/>
    <circle cx="-9" cy="7" r="1.5" fill="#FBBF24"/>
    <circle cx="-3" cy="-4" r="1.5" fill="#FBBF24"/>
    <circle cx="-3" cy="4" r="1.5" fill="#FBBF24"/>
    <circle cx="3" cy="-4" r="1.5" fill="#FBBF24"/>
    <circle cx="3" cy="4" r="1.5" fill="#FBBF24"/>
    <circle cx="9" cy="-7" r="1.5" fill="#FBBF24"/>
    <circle cx="9" cy="7" r="1.5" fill="#FBBF24"/>
  </g>
</svg>